# xmcd
#
# Track frame offsets:
#	182
#	14620
#	32635
#	51245
#	65860
#	81102
#	98532
#	116440
#	128385
#	143540
#
# Disc length: 2053 seconds
# Revision: 0
# Processed by: cddbd v1.5.2PL0 Copyright (c) Steve Scherf et al.
# Submitted via: dBpowerAMP V12.0
#
DISCID=7b08030a
DTITLE=Delbert McClinton - I'm With You
DYEAR=1990
DGENRE=Blues
TTITLE0=That's The Way I Feel
TTITLE1=My Baby's Lovin'
TTITLE2=Go on
TTITLE3=Got You on my Mind
TTITLE4=Crazy 'bout You
TTITLE5=I'm With You
TTITLE6=I Want to Love You
TTITLE7=Who's Foolin' Who
TTITLE8=The Real Thing
TTITLE9=My Love is Burnin'
EXTD=
EXTT0=
EXTT1=
EXTT2=
EXTT3=
EXTT4=
EXTT5=
EXTT6=
EXTT7=
EXTT8=
EXTT9=
PLAYORDER=
